<mxfile host="app.diagrams.net" modified="2024-05-27T02:53:18.942Z" agent="Mozilla/5.0 (Windows NT 10.0; Win64; x64) AppleWebKit/537.36 (KHTML, like Gecko) Chrome/125.0.0.0 Safari/537.36" etag="21iVhqD4cKVUtwNuZi1g" version="24.4.8" type="device">
  <diagram name="Page-1" id="IHfjQH6lJrM9A-uNRllf">
    <mxGraphModel dx="502" dy="779" grid="1" gridSize="10" guides="1" tooltips="1" connect="1" arrows="1" fold="1" page="1" pageScale="1" pageWidth="850" pageHeight="1100" math="0" shadow="0">
      <root>
        <mxCell id="0" />
        <mxCell id="1" parent="0" />
        <mxCell id="7FftgeH0GfsAVvw-4TUL-2" value="TokoBuku" style="swimlane;fontStyle=1;align=center;verticalAlign=top;childLayout=stackLayout;horizontal=1;startSize=26;horizontalStack=0;resizeParent=1;resizeParentMax=0;resizeLast=0;collapsible=1;marginBottom=0;whiteSpace=wrap;html=1;" parent="1" vertex="1">
          <mxGeometry x="260" y="70" width="200" height="100" as="geometry" />
        </mxCell>
        <mxCell id="7FftgeH0GfsAVvw-4TUL-4" value="" style="line;strokeWidth=1;fillColor=none;align=left;verticalAlign=middle;spacingTop=-1;spacingLeft=3;spacingRight=3;rotatable=0;labelPosition=right;points=[];portConstraint=eastwest;strokeColor=inherit;" parent="7FftgeH0GfsAVvw-4TUL-2" vertex="1">
          <mxGeometry y="26" width="200" height="8" as="geometry" />
        </mxCell>
        <mxCell id="7FftgeH0GfsAVvw-4TUL-5" value="+ main(String[] args): void" style="text;strokeColor=none;fillColor=none;align=left;verticalAlign=top;spacingLeft=4;spacingRight=4;overflow=hidden;rotatable=0;points=[[0,0.5],[1,0.5]];portConstraint=eastwest;whiteSpace=wrap;html=1;" parent="7FftgeH0GfsAVvw-4TUL-2" vertex="1">
          <mxGeometry y="34" width="200" height="66" as="geometry" />
        </mxCell>
        <mxCell id="piSzZ_gxIlII655VT60S-1" value="Buku" style="swimlane;fontStyle=1;align=center;verticalAlign=top;childLayout=stackLayout;horizontal=1;startSize=26;horizontalStack=0;resizeParent=1;resizeParentMax=0;resizeLast=0;collapsible=1;marginBottom=0;whiteSpace=wrap;html=1;" vertex="1" parent="1">
          <mxGeometry x="60" y="270" width="160" height="198" as="geometry" />
        </mxCell>
        <mxCell id="piSzZ_gxIlII655VT60S-2" value="+ judul: String&lt;div&gt;author: Perso&lt;/div&gt;&lt;div&gt;tahunpenerbitan: int&lt;/div&gt;&lt;div&gt;harga: Harga&lt;/div&gt;&lt;div&gt;penerbit: PerushaanBuku&lt;/div&gt;" style="text;strokeColor=none;fillColor=none;align=left;verticalAlign=top;spacingLeft=4;spacingRight=4;overflow=hidden;rotatable=0;points=[[0,0.5],[1,0.5]];portConstraint=eastwest;whiteSpace=wrap;html=1;" vertex="1" parent="piSzZ_gxIlII655VT60S-1">
          <mxGeometry y="26" width="160" height="104" as="geometry" />
        </mxCell>
        <mxCell id="piSzZ_gxIlII655VT60S-3" value="" style="line;strokeWidth=1;fillColor=none;align=left;verticalAlign=middle;spacingTop=-1;spacingLeft=3;spacingRight=3;rotatable=0;labelPosition=right;points=[];portConstraint=eastwest;strokeColor=inherit;" vertex="1" parent="piSzZ_gxIlII655VT60S-1">
          <mxGeometry y="130" width="160" height="8" as="geometry" />
        </mxCell>
        <mxCell id="piSzZ_gxIlII655VT60S-4" value="+ method(type): type" style="text;strokeColor=none;fillColor=none;align=left;verticalAlign=top;spacingLeft=4;spacingRight=4;overflow=hidden;rotatable=0;points=[[0,0.5],[1,0.5]];portConstraint=eastwest;whiteSpace=wrap;html=1;" vertex="1" parent="piSzZ_gxIlII655VT60S-1">
          <mxGeometry y="138" width="160" height="60" as="geometry" />
        </mxCell>
      </root>
    </mxGraphModel>
  </diagram>
</mxfile>
